<svg width="70.000000" height="70.000000" viewBox="0 0 70 70" fill="none" xmlns="http://www.w3.org/2000/svg" xmlns:xlink="http://www.w3.org/1999/xlink">
	<desc>
			Created with Pixso.
	</desc>
	<defs>
		<clipPath id="clip524_1221">
			<rect id="人" width="70.000000" height="70.000000" fill="white" fill-opacity="0"/>
		</clipPath>
	</defs>
	<g clip-path="url(#clip524_1221)">
		<path id="path" d="M35.01 51.22C22.08 51.22 11.55 40.7 11.55 27.76C11.55 14.82 22.08 4.3 35.01 4.3C47.95 4.3 58.47 14.82 58.47 27.76C58.47 40.7 47.95 51.22 35.01 51.22ZM35.01 6.42C23.25 6.42 13.67 15.99 13.67 27.76C13.67 39.53 23.25 49.1 35.01 49.1C46.78 49.1 56.35 39.53 56.35 27.76C56.35 15.99 46.78 6.42 35.01 6.42Z" fill="#131313" fill-opacity="1.000000" fill-rule="nonzero"/>
		<path id="path" d="M35.01 51.22C22.08 51.22 11.55 40.7 11.55 27.76C11.55 14.82 22.08 4.3 35.01 4.3C47.95 4.3 58.47 14.82 58.47 27.76C58.47 40.7 47.95 51.22 35.01 51.22ZM35.01 6.42C23.25 6.42 13.67 15.99 13.67 27.76C13.67 39.53 23.25 49.1 35.01 49.1C46.78 49.1 56.35 39.53 56.35 27.76C56.35 15.99 46.78 6.42 35.01 6.42Z" fill="#000000" fill-opacity="0.200000" fill-rule="nonzero"/>
		<path id="path" d="M13.67 27.76C13.67 15.99 23.25 6.42 35.01 6.42C46.78 6.42 56.35 15.99 56.35 27.76C56.35 39.53 46.78 49.1 35.01 49.1C23.25 49.1 13.67 39.53 13.67 27.76Z" fill="#131313" fill-opacity="1.000000" fill-rule="evenodd"/>
		<path id="path" d="M13.67 27.76C13.67 15.99 23.25 6.42 35.01 6.42C46.78 6.42 56.35 15.99 56.35 27.76C56.35 39.53 46.78 49.1 35.01 49.1C23.25 49.1 13.67 39.53 13.67 27.76Z" fill="#FFFFFF" fill-opacity="1.000000" fill-rule="evenodd"/>
		<path id="path" d="M35.04 40.45C31.01 40.45 27.24 38.65 24.71 35.52C24.34 35.06 24.41 34.39 24.87 34.03C25.32 33.66 25.99 33.73 26.36 34.18C28.49 36.82 31.65 38.33 35.04 38.33C38.45 38.33 41.62 36.8 43.75 34.14C44.12 33.68 44.79 33.61 45.24 33.97C45.7 34.34 45.77 35.01 45.41 35.47C42.87 38.63 39.09 40.45 35.04 40.45Z" fill="#131313" fill-opacity="1.000000" fill-rule="nonzero"/>
		<path id="path" d="M51.49 12.91C52.23 15.12 52.85 17.36 53.36 19.63C55.3 28.25 46.42 43.18 37.07 44.07C27.71 44.96 18.9 42.37 18.9 42.37L19.39 44.82L30.05 49.8L40.84 49.71L48.99 45.83L55.4 37.06L57.8 26.73C57.8 26.73 53.36 14.01 51.49 12.91Z" fill="#292017" fill-opacity="0.600000" fill-rule="nonzero"/>
		<path id="path" d="M49.58 55.89C49.58 55.89 49.8 52.31 48.45 52.89C45.38 57.18 42 59.85 36.25 60.43C26.08 61.46 19.79 57.98 19.79 57.98L18.75 62.4L18.31 64.41L52.24 64.41L52.24 59.52L49.58 55.89Z" fill="#292017" fill-opacity="0.600000" fill-rule="nonzero"/>
		<path id="path" d="M52.24 65.47L18.31 65.47C18.03 65.47 17.76 65.36 17.56 65.16C17.36 64.96 17.25 64.69 17.25 64.41C17.27 57.55 20.69 51.15 26.2 47.69C26.69 47.38 27.35 47.53 27.66 48.02C27.97 48.52 27.82 49.17 27.33 49.49C22.72 52.38 19.74 57.62 19.41 63.35L51.15 63.35C50.81 57.53 47.76 52.24 43.03 49.36C42.53 49.06 42.37 48.41 42.68 47.91C42.98 47.41 43.63 47.25 44.13 47.55C49.78 50.98 53.29 57.44 53.3 64.41C53.3 64.69 53.19 64.96 52.99 65.16C52.8 65.36 52.53 65.47 52.24 65.47Z" fill="#131313" fill-opacity="1.000000" fill-rule="nonzero"/>
	</g>
</svg>
