<?xml version="1.0" standalone="no"?><!DOCTYPE svg PUBLIC "-//W3C//DTD SVG 1.1//EN"
    "http://www.w3.org/Graphics/SVG/1.1/DTD/svg11.dtd">
<svg t="1652881763815" class="icon" viewBox="0 0 1024 1024" version="1.1" xmlns="http://www.w3.org/2000/svg" p-id="4908"
     width="250" height="250">
    <path
        d="M777.9328 185.2416c18.944 0 35.9424 7.9872 44.032 16.7936 9.6256 10.4448 16.7936 19.1488 16.7936 41.472v539.0336c0 30.9248-25.088 56.1152-56.1152 56.1152H243.4048c-32.1536 0-58.1632-26.0096-58.1632-58.1632V243.2c0-31.9488 25.9072-57.9584 57.9584-57.9584h534.7328z m2.6624-37.7856H243.4048c-52.9408 0-95.9488 42.9056-95.9488 95.9488v537.1904c0 52.9408 42.9056 95.9488 95.9488 95.9488h537.1904c52.9408 0 95.9488-42.9056 95.9488-95.9488V243.4048c0-53.0432-43.008-95.9488-95.9488-95.9488M511.5904 536.2688c-58.9824 0-110.7968-20.2752-152.576-62.0544s-59.4944-99.7376-59.4944-158.72c0-14.7456 13.6192-18.6368 18.6368-18.6368s18.6368 3.8912 18.6368 18.6368c0 92.2624 62.0544 183.5008 174.8992 183.5008 111.616 0 176.128-91.2384 176.128-183.5008 0-14.7456 13.6192-18.6368 18.6368-18.6368s18.6368 3.8912 18.6368 18.6368c0 58.9824-19.0464 117.0432-60.7232 158.72s-93.7984 62.0544-152.7808 62.0544z"
        p-id="4909" fill="#587BEB"></path>
    <path
        d="M780.5952 881.7664H243.4048c-55.808 0-101.1712-45.3632-101.1712-101.1712V243.4048c0-55.808 45.3632-101.1712 101.1712-101.1712h537.1904c55.808 0 101.1712 45.3632 101.1712 101.1712v537.1904c0 55.808-45.3632 101.1712-101.1712 101.1712z m-537.1904-729.088c-50.0736 0-90.7264 40.6528-90.7264 90.7264v537.1904c0 50.0736 40.6528 90.7264 90.7264 90.7264h537.1904c50.0736 0 90.7264-40.6528 90.7264-90.7264V243.4048c0-50.0736-40.6528-90.7264-90.7264-90.7264H243.4048z m539.2384 691.2H243.4048c-34.9184 0-63.3856-28.4672-63.3856-63.3856V243.2c0-34.816 28.3648-63.0784 63.0784-63.1808h534.7328c21.2992 0 39.424 9.3184 47.8208 18.5344 10.6496 11.5712 18.2272 21.504 18.2272 44.9536v539.0336c0.1024 33.8944-27.4432 61.3376-61.2352 61.3376zM243.2 190.464c-29.0816 0-52.736 23.6544-52.736 52.736v537.3952c0 29.184 23.7568 52.9408 52.9408 52.9408h539.2384c28.0576 0 50.8928-22.8352 50.8928-50.8928V243.6096c0-20.1728-5.8368-27.5456-15.4624-37.9904-6.656-7.2704-22.1184-15.1552-40.1408-15.1552H243.2z m268.3904 350.9248c-61.5424 0-114.0736-21.4016-156.2624-63.488-39.3216-39.3216-61.0304-97.0752-61.0304-162.4064 0-18.0224 16.0768-23.8592 23.8592-23.8592 7.7824 0 23.8592 5.8368 23.8592 23.8592 0 88.576 58.2656 178.2784 169.6768 178.2784 111.0016 0 170.9056-91.8528 170.9056-178.2784 0-18.0224 16.0768-23.8592 23.8592-23.8592 7.7824 0 23.8592 5.8368 23.8592 23.8592 0 64.6144-22.1184 122.2656-62.2592 162.4064-42.3936 42.1888-94.9248 63.488-156.4672 63.488zM318.1568 302.08c-0.1024 0-13.4144 0.8192-13.4144 13.4144 0 62.5664 20.5824 117.6576 57.9584 155.0336 40.1408 40.1408 90.2144 60.5184 148.8896 60.5184 58.6752 0 108.7488-20.3776 148.8896-60.5184 38.1952-38.1952 59.1872-93.2864 59.1872-155.0336 0-12.5952-13.2096-13.4144-13.4144-13.4144s-13.4144 0.8192-13.4144 13.4144c0 48.0256-17.3056 95.3344-47.5136 129.8432-33.792 38.5024-80.0768 58.9824-133.8368 58.9824-54.1696 0-100.4544-20.3776-133.7344-58.9824-29.4912-34.2016-46.3872-81.5104-46.3872-129.7408 0.2048-12.6976-13.1072-13.5168-13.2096-13.5168z"
        p-id="4910" fill="#587BEB"></path>
</svg>
